<?xml version="1.0" standalone="no"?>
<!DOCTYPE svg PUBLIC "-//W3C//DTD SVG 20010904//EN"
 "http://www.w3.org/TR/2001/REC-SVG-20010904/DTD/svg10.dtd">
<svg version="1.0" xmlns="http://www.w3.org/2000/svg"
 width="512.000000pt" height="512.000000pt" viewBox="0 0 512.000000 512.000000"
 preserveAspectRatio="xMidYMid meet">
<metadata>
Created by potrace 1.11, written by Peter Selinger 2001-2013
</metadata>
<g transform="translate(0.000000,512.000000) scale(0.100000,-0.100000)"
fill="#000000" stroke="none">
<path d="M1755 4883 c-120 -22 -418 -180 -609 -322 -118 -89 -148 -118 -177
-177 -23 -48 -24 -57 -27 -314 -1 -146 -7 -294 -13 -330 -18 -110 -78 -222
-163 -303 -46 -43 -69 -58 -305 -197 -191 -112 -222 -139 -257 -214 -33 -73
-39 -145 -39 -461 0 -297 5 -360 33 -440 25 -73 77 -118 257 -224 88 -51 187
-111 220 -132 123 -79 192 -169 245 -319 8 -21 14 -110 16 -230 8 -403 9 -423
29 -460 32 -61 56 -88 134 -148 234 -181 550 -347 676 -356 75 -5 116 12 306
125 181 108 307 175 330 176 8 1 35 5 61 11 70 14 174 5 251 -23 38 -13 164
-81 281 -149 286 -168 312 -173 494 -90 41 19 75 34 77 34 4 0 201 110 243
135 45 27 147 100 213 153 51 40 83 75 104 113 l30 54 6 310 c5 280 8 315 27
365 58 156 137 245 295 336 246 140 346 205 376 243 35 44 60 106 67 166 2 22
8 74 13 115 9 78 7 442 -4 520 -12 97 -16 116 -27 150 -16 52 -61 113 -105
142 -21 14 -126 78 -233 141 -107 64 -209 128 -225 144 -51 48 -101 115 -128
173 -48 105 -56 163 -56 454 -1 262 -1 270 -25 321 -24 53 -65 100 -124 145
-19 14 -46 34 -60 46 -42 32 -190 128 -257 164 -250 138 -384 177 -476 140
-19 -8 -101 -54 -184 -104 -316 -188 -340 -198 -480 -199 -153 -1 -181 10
-501 201 -178 106 -237 128 -309 115z m984 -848 c149 -19 308 -68 441 -135 68
-34 181 -100 190 -110 3 -3 21 -17 40 -30 52 -37 75 -57 166 -148 150 -151
281 -364 345 -562 33 -102 32 -99 56 -210 18 -86 26 -378 13 -455 -5 -27 -12
-68 -15 -90 -16 -102 -64 -250 -117 -364 -211 -450 -634 -764 -1113 -828 -113
-15 -425 -7 -455 12 -4 2 -22 7 -41 10 -150 26 -404 140 -531 239 -14 12 -41
32 -59 46 -115 85 -291 299 -371 449 -78 148 -144 353 -165 516 -10 76 -10
311 0 390 15 117 58 274 106 390 116 278 347 543 608 696 158 92 386 169 549
184 38 4 70 8 72 9 5 6 229 -2 281 -9z"/>
</g>
</svg>
